<?xml version="1.0" encoding="utf-8"?>
<!-- Generator: Adobe Illustrator 28.0.0, SVG Export Plug-In . SVG Version: 6.00 Build 0)  -->
<svg version="1.1" id="Layer_1" xmlns="http://www.w3.org/2000/svg" xmlns:xlink="http://www.w3.org/1999/xlink" x="0px" y="0px"
	 viewBox="0 0 103.6 103.6" style="enable-background:new 0 0 103.6 103.6;" xml:space="preserve">
<path d="M35.1,51.8c0-9.2,7.5-16.7,16.7-16.7s16.7,7.5,16.7,16.7S61,68.4,51.8,68.4S35.1,61,35.1,51.8 M26.1,51.8
	c0,14.2,11.5,25.7,25.7,25.7S77.5,66,77.5,51.8S66,26.1,51.8,26.1S26.1,37.6,26.1,51.8 M72.5,25.1c0,3.3,2.7,6,6,6s6-2.7,6-6
	s-2.7-6-6-6S72.5,21.8,72.5,25.1 M31.6,92.5c-4.9-0.2-7.5-1-9.3-1.7c-2.3-0.9-4-2-5.8-3.7c-1.7-1.7-2.8-3.4-3.7-5.7
	c-0.7-1.8-1.5-4.4-1.7-9.3c-0.2-5.3-0.3-6.9-0.3-20.2s0.1-14.9,0.3-20.2c0.2-4.9,1-7.5,1.7-9.3c0.9-2.3,2-4,3.7-5.8
	c1.7-1.7,3.4-2.8,5.8-3.7c1.8-0.7,4.4-1.5,9.3-1.7c5.3-0.2,6.9-0.3,20.2-0.3c13.4,0,14.9,0.1,20.2,0.3c4.9,0.2,7.5,1,9.3,1.7
	c2.3,0.9,4,2,5.8,3.7c1.7,1.7,2.8,3.4,3.7,5.8c0.7,1.8,1.5,4.4,1.7,9.3c0.2,5.3,0.3,6.9,0.3,20.2s0,14.9-0.3,20.2
	c-0.2,4.9-1,7.5-1.7,9.3c-0.9,2.3-2,4-3.7,5.7s-3.4,2.8-5.8,3.7c-1.8,0.7-4.4,1.5-9.3,1.7c-5.3,0.2-6.9,0.3-20.2,0.3
	C38.4,92.8,36.8,92.7,31.6,92.5 M31.2,2.1c-5.3,0.2-9,1.1-12.1,2.3c-3.3,1.3-6.1,3-8.9,5.8s-4.5,5.6-5.8,8.9
	c-1.2,3.2-2.1,6.8-2.3,12.1s-0.3,7-0.3,20.6s0.1,15.3,0.3,20.6s1.1,9,2.3,12.1c1.3,3.3,3,6.1,5.8,8.9s5.6,4.5,8.9,5.8
	c3.2,1.2,6.8,2.1,12.1,2.3c5.3,0.2,7,0.3,20.6,0.3s15.3-0.1,20.6-0.3c5.3-0.2,9-1.1,12.1-2.3c3.3-1.3,6.1-3,8.9-5.8s4.5-5.6,5.8-8.9
	c1.2-3.2,2.1-6.8,2.3-12.1c0.2-5.3,0.3-7,0.3-20.6s-0.1-15.3-0.3-20.6c-0.2-5.3-1.1-9-2.3-12.1c-1.3-3.3-3-6.1-5.8-8.9
	s-5.6-4.5-8.9-5.8c-3.2-1.2-6.8-2.1-12.1-2.3c-5.3-0.2-7-0.3-20.6-0.3C38.2,1.8,36.5,1.8,31.2,2.1"/>
</svg>
